<svg width="24" height="24" viewBox="0 0 24 24" fill="none" xmlns="http://www.w3.org/2000/svg">
<g clip-path="url(#clip0_5000_12931)">
<circle cx="12" cy="12" r="11.4101" fill="#EFEFF0" stroke="#AFB1B6" stroke-width="1.17977"/>
<path d="M15.9101 9.5C15.9101 11.6595 14.1595 13.4101 12 13.4101C9.8405 13.4101 8.08989 11.6595 8.08989 9.5C8.08989 7.3405 9.8405 5.58989 12 5.58989C14.1595 5.58989 15.9101 7.3405 15.9101 9.5Z" stroke="#AFB1B6" stroke-width="1.17977"/>
<path fill-rule="evenodd" clip-rule="evenodd" d="M2.51172 19.3486C4.58424 16.7228 8.06087 15.0005 12.0001 15.0005C15.9389 15.0005 19.4152 16.7224 21.4878 19.3477C21.2403 19.6669 20.9771 19.9731 20.6994 20.2654C18.8928 17.8407 15.73 16.1803 12.0001 16.1803C8.2698 16.1803 5.10668 17.8411 3.30026 20.2662C3.02245 19.974 2.75921 19.6677 2.51172 19.3486Z" fill="#AFB1B6"/>
</g>
<defs>
<clipPath id="clip0_5000_12931">
<rect width="24" height="24" fill="white"/>
</clipPath>
</defs>
</svg>
